<svg width="32" height="32" viewBox="0 0 32 32" fill="none" xmlns="http://www.w3.org/2000/svg">
<path d="M32 16C32 24.8366 24.8366 32 16 32C7.16344 32 0 24.8366 0 16C0 7.16344 7.16344 0 16 0C24.8366 0 32 7.16344 32 16Z" fill="#161823" fill-opacity="0.03"/>
<path fill-rule="evenodd" clip-rule="evenodd" d="M14.5858 16L9.14645 10.5607C8.95118 10.3654 8.95118 10.0488 9.14645 9.85355L9.85355 9.14645C10.0488 8.95118 10.3654 8.95118 10.5607 9.14645L16 14.5858L21.4393 9.14645C21.6346 8.95118 21.9512 8.95118 22.1464 9.14645L22.8536 9.85355C23.0488 10.0488 23.0488 10.3654 22.8536 10.5607L17.4142 16L22.8536 21.4393C23.0488 21.6346 23.0488 21.9512 22.8536 22.1464L22.1464 22.8536C21.9512 23.0488 21.6346 23.0488 21.4393 22.8536L16 17.4142L10.5607 22.8536C10.3654 23.0488 10.0488 23.0488 9.85355 22.8536L9.14645 22.1464C8.95118 21.9512 8.95118 21.6346 9.14645 21.4393L14.5858 16Z" fill="#161823" fill-opacity="0.75"/>
</svg>