<svg width="32" height="32" viewBox="0 0 32 32" fill="none" xmlns="http://www.w3.org/2000/svg">
<path fill-rule="evenodd" clip-rule="evenodd" d="M4.09751 6.63192C4.27438 6.24712 4.66288 6 5.09093 6H26.9091C27.298 6 27.6574 6.20436 27.8526 6.53639C28.0478 6.86842 28.0492 7.27791 27.8563 7.61122L16.9472 26.4574C16.7322 26.8288 16.3148 27.0394 15.8839 26.9939C15.453 26.9483 15.0902 26.6553 14.9597 26.2474L11.7558 16.2317L4.26993 7.78608C3.98806 7.46807 3.92063 7.01672 4.09751 6.63192ZM14.0238 16.1691L16.2896 23.2521L25.0293 8.15384H7.49503L12.941 14.298L19.3274 10.4183C19.5839 10.2624 19.9199 10.3414 20.0778 10.5947L20.6495 11.5118C20.8074 11.7651 20.7274 12.0968 20.4708 12.2526L14.0238 16.1691Z" fill="#161823"/>
</svg>
