<svg width="32" height="32" viewBox="0 0 32 32" fill="none" xmlns="http://www.w3.org/2000/svg">
<path fill-rule="evenodd" clip-rule="evenodd" d="M27.8538 6.54348C27.659 6.20718 27.2988 6 26.9091 6H5.09093C4.65905 6 4.26783 6.25386 4.09319 6.64742C3.91855 7.04098 3.99337 7.50014 4.28401 7.81843L9.97855 14.0548C10.2802 14.3852 10.754 14.4981 11.1731 14.3394L19.0818 11.3443C19.1739 11.3095 19.2156 11.3239 19.2338 11.3311C19.2657 11.3437 19.3114 11.3765 19.3472 11.437C19.3831 11.4975 19.3898 11.5532 19.3855 11.5871C19.3831 11.6065 19.3755 11.6499 19.3005 11.7133L12.8071 17.2009C12.4725 17.4837 12.3405 17.9388 12.472 18.3559L14.9593 26.239C15.0891 26.6503 15.4506 26.9463 15.8808 26.9935C16.3109 27.0406 16.7284 26.8299 16.9448 26.4565L27.8538 7.63044C28.0487 7.29414 28.0487 6.87979 27.8538 6.54348Z" fill="black"/>
</svg>
